<svg width="21" height="19" viewBox="0 0 21 19" fill="none" xmlns="http://www.w3.org/2000/svg">
<path d="M1.575 3.43056V5.27778H6.43511C6.64397 5.27778 6.84428 5.19437 6.99196 5.0459L8.59876 3.43056L6.99196 1.81521C6.84428 1.66674 6.64397 1.58333 6.43511 1.58333H3.4125C2.39767 1.58333 1.575 2.41036 1.575 3.43056ZM0 3.43056C0 1.53591 1.52782 0 3.4125 0H6.43511C7.06169 0 7.6626 0.250219 8.10565 0.695622L10.0387 2.63889H17.5875C19.4721 2.63889 21 4.1748 21 6.06944V15.5694C21 17.4641 19.4721 19 17.5875 19H3.4125C1.52782 19 0 17.4641 0 15.5694V3.43056ZM1.575 6.86111V15.5694C1.575 16.5896 2.39767 17.4167 3.4125 17.4167H17.5875C18.6023 17.4167 19.425 16.5896 19.425 15.5694V6.06944C19.425 5.04925 18.6023 4.22222 17.5875 4.22222H10.0387L8.10565 6.16549C7.6626 6.61089 7.06169 6.86111 6.43511 6.86111H1.575Z" fill="#2664ED"/>
</svg>
