<svg width="285" height="256" viewBox="0 0 285 256" fill="none" xmlns="http://www.w3.org/2000/svg">
<path d="M283.662 115.053C279.713 89.9267 256.148 72.7645 231.022 76.7138C217.466 78.8454 206.239 86.6855 199.384 97.4019C186.908 92.2992 172.922 90.4304 158.628 92.6788C116.902 99.2342 88.3952 138.384 94.9506 180.11C101.506 221.837 140.656 250.343 182.382 243.788C220.4 237.809 247.447 204.784 246.987 167.394C271.194 162.685 287.524 139.625 283.662 115.06V115.053Z" fill="#FAE9B4"/>
<path d="M259.645 81.5385C253.856 78.3995 247.367 76.4869 240.57 76.0781C215.196 79.9398 193.668 99.073 188.054 125.667C186.127 134.814 186.383 143.187 188.398 151.02C188.828 152.699 191.339 152.239 191.099 150.523C190.281 144.603 190.493 138.383 191.923 131.602C198.632 99.8103 228.073 78.6623 259.645 81.5385Z" fill="#B97F3C"/>
<path d="M172.497 165.175C172.132 166.92 179.724 161.912 179.447 163.649C191.798 117.163 226.999 92.7738 274.434 93.9929C271.426 90.1312 267.82 86.7879 263.79 84.0723C219.896 88.3573 182.016 120.178 172.497 165.175Z" fill="#B97F3C"/>
<path d="M217.349 130.04C214.079 127.521 209.37 122.711 204.779 113.819C200.399 105.351 202.049 96.7591 204.574 90.5469C202.917 92.4011 201.406 94.3794 200.063 96.4744C197.42 95.394 194.705 94.467 191.938 93.6859L185.697 108.636C185.47 109.176 185.412 109.775 185.536 110.352L189.471 129.149L177.287 124.842L140.232 159.685C140.232 159.685 171.761 200.572 174.462 184.884C175.9 176.533 184.857 162.992 192.931 152.144C197.012 146.654 202.326 142.201 208.451 139.157L216.897 134.967C218.838 134.004 219.072 131.354 217.357 130.04H217.349Z" fill="#F0D698"/>
<path d="M249.899 166.788C272.58 160.926 287.531 138.683 283.822 115.068C283.202 111.104 282.085 107.345 280.559 103.826C281.961 121.718 275.96 151.531 258.105 150.648L249.907 166.788H249.899Z" fill="#F0D698"/>
<path d="M240.818 139.399C241.373 139.472 241.92 139.611 242.424 139.844C247.855 142.312 251.98 147.37 252.972 153.707C253.848 159.277 252.118 164.657 248.687 168.599C247.811 169.606 247.308 170.884 247.242 172.212C245.534 207.675 219.166 238.277 182.718 244.007C176.053 245.051 169.461 245.204 163.051 244.555C155.978 243.832 154.299 238.978 161.358 238.175C161.511 238.16 164.533 237.686 164.687 237.671C195.763 233.984 222.086 228.809 230.569 185.44C232.591 175.088 230.204 174.979 225.911 172.584C221.159 169.935 217.626 165.197 216.721 159.408C215.144 149.4 221.984 140.005 232 138.435C232.496 138.355 232.992 138.355 233.489 138.421L240.818 139.413V139.399Z" fill="#F0D698"/>
<path d="M240.424 168.889C251.491 168.889 260.463 159.918 260.463 148.851C260.463 137.784 251.491 128.812 240.424 128.812C229.357 128.812 220.386 137.784 220.386 148.851C220.386 159.918 229.357 168.889 240.424 168.889Z" fill="#FAE9B4"/>
<path d="M251.243 158.786C243.418 164.911 232.037 164.312 224.927 157.363C223.554 156.019 222.416 154.538 221.51 152.968C221.284 152.574 220.671 152.793 220.758 153.245C221.474 156.917 223.233 160.451 226.08 163.371C232.519 169.999 244.476 171.094 252.002 165.736C258.981 160.764 261.733 152.362 259.923 144.734C259.784 144.135 258.908 144.194 258.85 144.807C258.368 150.106 255.798 155.216 251.236 158.793L251.243 158.786Z" fill="#F0D698"/>
<path d="M249.622 165.779C249.038 166.144 248.433 166.48 247.797 166.787C238.388 171.327 227.073 167.378 222.532 157.968C217.992 148.559 221.941 137.244 231.351 132.703" stroke="#C6AA7A" stroke-width="1.5" stroke-miterlimit="10"/>
<path d="M188.193 128.566L189.172 127.157C193.413 121.178 198.26 115.711 203.618 110.812C203.969 111.776 204.377 112.747 204.881 113.711C205.443 114.806 206.013 115.835 206.582 116.806C206.582 116.806 195.457 125.566 194.179 127.646C192.902 129.727 188.201 128.559 188.201 128.559L188.193 128.566Z" fill="#A16C36"/>
<path d="M192.046 131.485C193.937 122.52 197.638 114.41 202.682 107.438C201.901 103.628 202.113 99.9195 202.814 96.5469C196.047 104.146 191.032 113.468 188.535 124.017L188.338 125.776L192.046 131.485Z" fill="#A16C36"/>
<path d="M283.662 115.053C279.713 89.9267 256.148 72.7645 231.022 76.7138C217.466 78.8454 206.239 86.6855 199.384 97.4019C186.908 92.2992 172.922 90.4304 158.628 92.6788C116.902 99.2342 88.3952 138.384 94.9506 180.11C101.506 221.837 140.656 250.343 182.382 243.788C220.4 237.809 247.447 204.784 246.987 167.394C271.194 162.685 287.524 139.625 283.662 115.06V115.053Z" stroke="#C6AA7A" stroke-width="1.5" stroke-miterlimit="10"/>
<path d="M193.858 99.124C193.858 99.124 193.909 99.0875 193.931 99.0729C190.901 90.5246 185.791 82.9546 179.185 77.0124C179.177 77.0051 179.17 76.9978 179.163 76.9905C169.797 68.3984 165.614 56.2367 164.008 50.1631C163.942 49.9003 163.942 49.9149 163.942 49.9003C163.446 47.995 163.212 46.7321 163.169 46.462V46.4474L163.132 46.3379L163.154 46.4036C159.884 35.8698 149.773 28.3508 138.013 29.0443C125.603 29.7743 115.522 39.841 114.784 52.2509C114.646 54.5431 114.828 56.7696 115.274 58.9012C116.157 63.0768 112.682 66.8362 108.448 66.3179C103.17 65.6682 97.1258 65.4857 90.5267 66.2887C86.3584 66.807 82.8398 63.0914 83.7231 58.9815C84.0881 57.2952 84.2779 55.5432 84.2779 53.7547C84.2779 40.0746 73.1892 29.0005 59.5237 29.0005C50.2674 29.0005 42.1863 34.074 37.945 41.6076C37.2953 42.7537 36.7332 43.9508 36.2733 45.1991C36.266 45.2064 36.266 45.221 36.2587 45.2356C36.2587 45.2502 36.2514 45.2575 36.2514 45.2721C36.0105 46.1335 35.755 46.9657 35.4995 47.776L35.4557 47.9293C29.4114 67.2012 21.4033 75.5013 20.3886 76.5087C20.3156 76.5817 20.2791 76.6109 20.2791 76.6109C9.06637 86.495 2 100.949 2 117.053C2 136.113 11.906 152.866 26.8345 162.437C26.8491 162.444 26.8637 162.458 26.8929 162.466C28.4332 163.488 30.1049 164.437 31.8568 165.335C32.9518 165.882 34.0687 166.393 35.2075 166.86C37.0544 167.766 38.9816 168.634 40.9745 169.459C41.4198 169.642 41.8651 169.824 42.3104 170.007C43.3616 170.43 44.442 170.839 45.5297 171.233V215.383C45.5297 215.5 45.5151 215.617 45.5151 215.734V248.116C45.5151 251.766 48.4716 254.723 52.1215 254.723H89.5047C93.1546 254.723 96.1111 251.766 96.1111 248.116V235.619H96.133C96.133 235.56 96.1257 235.502 96.1257 235.443C96.1257 231.794 99.0822 228.837 102.732 228.837C106.163 228.837 108.981 231.458 109.309 234.801V248.021C109.309 251.671 112.266 254.628 115.916 254.628H153.299C156.949 254.628 159.906 251.671 159.906 248.021V241.502H159.942V168.547C160.679 168.225 161.417 167.897 162.132 167.561L162.066 167.495C162.541 167.32 163.001 167.123 163.475 166.933C163.526 166.904 163.585 166.882 163.643 166.853C183.192 158.765 196.946 139.522 196.946 117.053C196.946 110.76 195.858 104.723 193.872 99.1094L193.858 99.124Z" fill="#FAE9B4"/>
<path d="M2.7666 117.177C2.7666 139.785 16.3737 159.152 35.6967 167.291C52.0487 175.489 74.4668 180.541 99.1991 180.541C123.931 180.541 146.342 175.482 162.702 167.291C166.95 165.503 170.929 163.167 174.542 160.378C174.381 160.312 174.206 160.254 174.024 160.21C173.418 160.071 172.797 160.13 172.228 160.371C157.803 166.517 134.567 174.197 105.265 174.635C82.3946 174.978 63.495 170.788 50.3478 166.729C31.1635 159.874 17.2132 143.026 14.3078 123.031C11.7456 105.439 18.6148 91.3861 23.9584 83.4657C25.8491 80.6625 24.6446 76.9395 21.8195 75.6328C10.1761 85.5827 2.7666 100.496 2.7666 117.177Z" fill="#F0D698"/>
<path d="M148.24 112.977C132.059 112.977 117.226 116.985 105.64 123.664C101.866 125.839 97.1849 125.801 93.4728 123.534C81.6932 116.351 66.2867 112 49.431 112C31.3043 112 14.8671 117.03 2.79297 125.206C4.73041 144.823 17.6492 161.273 35.4194 168.517C51.7481 176.441 74.1371 181.326 98.8356 181.326C123.534 181.326 145.923 176.441 162.252 168.517C179.751 161.388 192.546 145.342 194.793 126.122C182.727 117.985 166.328 112.977 148.248 112.977H148.24Z" fill="#FEF6E6"/>
<path d="M173.93 161.854C173.93 161.854 173.915 161.854 173.907 161.854C173.303 161.725 172.683 161.778 172.117 162.015C157.71 167.953 134.507 175.381 105.244 175.808C82.398 176.136 63.5273 172.091 50.3992 168.159C31.2419 161.534 17.3078 145.244 14.4094 125.924C14.0607 123.588 13.8902 121.314 13.8669 119.115C9.99981 120.802 6.38843 122.756 3.10254 124.947C4.88498 144.763 17.8658 161.404 35.7755 168.701C37.7207 169.648 39.7511 170.541 41.8668 171.396C57.4128 177.609 77.1979 181.335 98.7499 181.335C123.448 181.335 145.837 176.449 162.166 168.526C166.397 166.801 170.342 164.556 173.938 161.87L173.93 161.854Z" fill="#F3E8D4"/>
<path d="M194.164 99.4013C194.164 99.4013 194.215 99.3648 194.237 99.3502C191.208 90.802 186.098 83.2319 179.491 77.2897C179.484 77.2824 179.477 77.2751 179.469 77.2678C170.104 68.6758 165.921 56.514 164.315 50.4405C164.249 50.1777 164.249 50.1923 164.249 50.1777C163.753 48.2724 163.519 47.0095 163.475 46.7394V46.7248L163.439 46.6153L163.461 46.681C160.19 36.1471 150.08 28.6282 138.32 29.3217C125.91 30.0517 115.828 40.1183 115.091 52.5282C114.952 54.8204 115.135 57.0469 115.58 59.1785C116.463 63.3541 112.989 67.1136 108.755 66.5953C103.477 65.9456 97.4325 65.7631 90.8333 66.5661C86.665 67.0844 83.1464 63.3687 84.0297 59.2588C84.3947 57.5725 84.5845 55.8205 84.5845 54.032C84.5845 40.3519 73.4959 29.2779 59.8304 29.2779C50.574 29.2779 42.4929 34.3513 38.2517 41.8849C37.602 43.031 37.0399 44.2282 36.58 45.4765C36.5727 45.4838 36.5727 45.4984 36.5654 45.513C36.5654 45.5276 36.5581 45.5349 36.5581 45.5495C36.3172 46.4109 36.0617 47.2431 35.8062 48.0534L35.7624 48.2067C29.718 67.4786 21.7099 75.7786 20.6952 76.786C20.6223 76.859 20.5858 76.8882 20.5858 76.8882C9.36571 86.7724 2.30664 101.226 2.30664 117.33C2.30664 136.39 12.2127 153.144 27.1411 162.714C27.1557 162.721 27.1703 162.736 27.1995 162.743C28.7398 163.765 30.4115 164.714 32.1635 165.612C33.2585 166.159 34.3754 166.67 35.5142 167.138C37.3611 168.043 39.2883 168.912 41.2811 169.736C41.7264 169.919 42.1717 170.101 42.617 170.284C43.6682 170.707 44.7486 171.116 45.8363 171.51V215.661C45.8363 215.777 45.8217 215.894 45.8217 216.011V248.394C45.8217 252.044 48.7782 255 52.4282 255H89.8113C93.4613 255 96.4178 252.044 96.4178 248.394V235.896H96.4397C96.4397 235.838 96.4324 235.779 96.4324 235.721C96.4324 232.071 99.3889 229.114 103.039 229.114C106.47 229.114 109.288 231.735 109.616 235.078V248.299C109.616 251.949 112.573 254.905 116.223 254.905H153.606C157.256 254.905 160.212 251.949 160.212 248.299V241.78H160.249V168.824C160.986 168.503 161.723 168.174 162.439 167.838L162.373 167.773C162.847 167.598 163.307 167.4 163.782 167.211C163.833 167.181 163.891 167.16 163.95 167.13C183.499 159.042 197.252 139.799 197.252 117.33C197.252 111.037 196.164 105 194.179 99.3867L194.164 99.4013Z" stroke="#C6AA7A" stroke-width="1.5" stroke-miterlimit="10"/>
<path d="M58.5743 63.295C63.759 63.295 67.962 59.092 67.962 53.9073C67.962 48.7226 63.759 44.5195 58.5743 44.5195C53.3896 44.5195 49.1865 48.7226 49.1865 53.9073C49.1865 59.092 53.3896 63.295 58.5743 63.295Z" fill="#C79247"/>
<path d="M139.91 63.1212C145.095 63.1212 149.298 58.9182 149.298 53.7335C149.298 48.5487 145.095 44.3457 139.91 44.3457C134.726 44.3457 130.522 48.5487 130.522 53.7335C130.522 58.9182 134.726 63.1212 139.91 63.1212Z" fill="#C79247"/>
<path d="M126.595 84.9476C126.595 84.9476 126.602 84.9257 126.609 84.9184C127.084 81.94 124.12 65.902 123.207 61.0913C123.207 61.0913 123.207 61.0767 123.207 61.0694C123.156 60.6387 123.069 60.208 122.966 59.7846C122.959 59.7481 122.952 59.7262 122.952 59.7262C121.886 55.4922 118.338 52.1416 113.754 51.5357C111.454 51.2364 109.235 51.6671 107.33 52.6526C107.323 52.6526 107.308 52.6526 107.301 52.6599C101.417 54.7184 97.7232 51.2218 97.7232 51.2218H97.7159C96.1537 49.8859 94.2119 48.9588 92.0219 48.6741C87.547 48.0828 83.3569 50.2728 81.1815 53.9081C81.1815 53.9081 81.1742 53.9081 81.1669 53.9373C81.1596 53.9519 81.145 53.9738 81.1304 53.9884C81.1158 54.0176 81.1012 54.0541 81.0793 54.0833C80.9917 54.2585 80.8384 54.5432 80.634 54.9374C80.634 54.952 80.6194 54.9739 80.6121 54.9958C78.7579 58.6312 72.8814 70.5813 71.4871 78.7061C71.436 78.9616 71.3995 79.2171 71.363 79.4653C71.3557 79.5237 71.3484 79.5894 71.3484 79.6405C70.5381 86.4879 75.3707 92.7221 82.2254 93.6273C86.233 94.1529 90.0363 92.7367 92.7154 90.1014C93.241 89.5977 95.1244 87.9917 97.8546 88.1815C100.906 88.3932 102.629 90.6854 103.096 91.4081C104.994 94.6711 108.33 97.0582 112.367 97.5838C119.273 98.489 125.609 93.6273 126.522 86.7142C126.602 86.1156 126.631 85.5243 126.624 84.9403L126.595 84.9476Z" fill="#B97F3C"/>
<path d="M126.499 86.6707C126.579 86.0721 126.609 85.4808 126.601 84.8968C126.609 84.8968 126.609 84.8749 126.616 84.8676C126.631 84.7727 126.645 84.6705 126.652 84.5537C121.718 93.1458 117.608 95.0073 114.695 95.0438C108.578 95.1168 106.76 87.1379 98.5549 85.8896C90.4154 84.6559 86.3055 91.6201 81.0204 89.8243C77.8522 88.7512 73.8153 86.9189 72.3626 74.8594C71.9903 76.1807 71.6837 77.4655 71.4793 78.6627C71.4282 78.9182 71.3917 79.1737 71.3552 79.4219C71.3479 79.4803 71.3406 79.546 71.3406 79.5971C70.5303 86.4444 75.3629 92.6786 82.2176 93.5838C86.2252 94.1094 90.0358 92.6932 92.7076 90.0579C93.2332 89.5542 95.1166 87.9482 97.8468 88.138C100.898 88.3497 102.621 90.6419 103.088 91.3646C104.986 94.6277 108.322 97.0148 112.359 97.5404C119.265 98.4456 125.601 93.5838 126.514 86.6707H126.499Z" fill="#A16C36"/>
<path d="M38.6314 42.1781C38.0182 43.2512 37.4999 44.3827 37.0619 45.5507C37.0546 45.558 37.0546 45.5726 37.0473 45.5872C37.0473 45.6018 37.04 45.6091 37.04 45.6237C36.8137 46.4267 36.5728 47.2151 36.3319 47.9816L36.2881 48.1276C33.8134 56.0189 30.9884 61.9464 28.5137 66.2096C28.6451 69.9472 30.2584 71.8452 32.3535 71.3269C35.2004 70.6115 36.4487 57.8 39.4709 49.0839C42.4931 40.3677 46.2307 36.4476 46.2307 36.4476C47.2673 34.7541 47.4571 33.8927 47.2308 33.4766C43.6465 35.5571 40.6681 38.5646 38.6241 42.1854L38.6314 42.1781Z" fill="#F0D698"/>
<path d="M131.268 194.951C130.844 193.841 130.29 192.797 129.633 191.833L129.625 191.819C126.902 187.862 122.347 185.263 117.179 185.263C115.201 185.263 113.31 185.658 111.58 186.351C111.266 186.439 110.93 186.577 110.58 186.782C110.514 186.818 110.448 186.855 110.383 186.891C110.149 187.008 109.915 187.14 109.689 187.271C103.323 190.519 98.1989 188.198 96.4688 187.191C96.3155 187.088 96.1549 186.994 95.9943 186.899C95.8921 186.833 95.8337 186.789 95.8337 186.789V186.804C93.5488 185.424 90.8843 184.621 88.03 184.621C82.5843 184.621 77.8101 187.505 75.1529 191.833C75.1529 191.833 75.1529 191.833 75.1529 191.841C74.5762 192.775 74.109 193.783 73.744 194.841C71.6489 199.703 68.1668 209.594 70.1232 218.033C70.1232 218.033 70.1232 218.04 70.1232 218.048C70.1597 218.186 70.1816 218.332 70.2181 218.478C70.2181 218.493 70.2181 218.5 70.2254 218.508C71.8898 225.523 78.1897 230.75 85.716 230.75C86.154 230.75 88.0738 230.779 90.4244 230.041C95.0745 228.581 97.7463 225.333 98.761 223.946C98.8194 223.873 98.9289 223.742 99.0822 223.603C100.907 221.866 104.783 221.975 106.338 223.807C106.477 223.968 106.572 224.121 106.623 224.201C107.652 225.567 110.302 228.662 114.836 230.063C115.186 230.173 117.339 230.757 119.486 230.757C128.275 230.757 135.407 223.632 135.407 214.836C135.94 206.484 133.158 199.009 131.268 194.98V194.951Z" fill="white"/>
<path d="M72.9799 128.96C80.7008 128.96 86.9598 122.701 86.9598 114.98C86.9598 107.259 80.7008 101 72.9799 101C65.259 101 59 107.259 59 114.98C59 122.701 65.259 128.96 72.9799 128.96Z" fill="#3A2D1A"/>
<path d="M64.1136 110.926C63.0696 113.511 62.6944 117.304 64.1136 118.079C65.2473 118.699 66.642 116.945 70.3531 114.841C76.658 111.268 80.2631 112.011 80.6709 110.094C81.1439 107.875 76.9271 103.92 72.433 104.017C66.9683 104.14 64.4072 110.2 64.1136 110.926Z" fill="white"/>
<path d="M81.3399 120.281C82.1555 118.25 82.4573 115.289 81.3399 114.678C80.4509 114.196 79.3579 115.567 76.4543 117.214C71.5197 120.012 68.6976 119.433 68.3795 120.934C68.0125 122.671 71.3158 125.77 74.8312 125.689C79.1132 125.591 81.1197 120.844 81.3481 120.281H81.3399Z" fill="white"/>
<path d="M127.07 128.96C134.791 128.96 141.05 122.701 141.05 114.98C141.05 107.259 134.791 101 127.07 101C119.349 101 113.09 107.259 113.09 114.98C113.09 122.701 119.349 128.96 127.07 128.96Z" fill="#3A2D1A"/>
<path d="M118.203 110.926C117.159 113.511 116.784 117.304 118.203 118.079C119.337 118.699 120.732 116.945 124.443 114.841C130.748 111.268 134.353 112.011 134.761 110.094C135.234 107.875 131.017 103.92 126.523 104.017C121.058 104.14 118.497 110.2 118.203 110.926Z" fill="white"/>
<path d="M135.43 120.281C136.245 118.25 136.547 115.289 135.43 114.678C134.541 114.196 133.448 115.567 130.544 117.214C125.61 120.012 122.787 119.433 122.469 120.934C122.102 122.671 125.406 125.77 128.921 125.689C133.203 125.591 135.21 120.844 135.438 120.281H135.43Z" fill="white"/>
<path d="M59.7671 136.614C63.5044 136.614 66.5341 134.238 66.5341 131.307C66.5341 128.376 63.5044 126 59.7671 126C56.0297 126 53 128.376 53 131.307C53 134.238 56.0297 136.614 59.7671 136.614Z" fill="#EFAD9A"/>
<path d="M143.301 136.614C147.039 136.614 150.068 134.238 150.068 131.307C150.068 128.376 147.039 126 143.301 126C139.564 126 136.534 128.376 136.534 131.307C136.534 134.238 139.564 136.614 143.301 136.614Z" fill="#EFAD9A"/>
<path d="M78.5551 133H123.55C125.155 133 126.416 134.353 126.307 135.958C125.92 141.866 122.592 154.556 101.053 154.556C79.5132 154.556 76.1852 141.858 75.7986 135.958C75.6978 134.361 76.9584 133 78.5551 133Z" fill="#E98D78" stroke="#E27C63" stroke-width="1.5" stroke-miterlimit="10"/>
<path d="M90.8912 133.498H111.204V139.851C111.204 141.625 109.767 143.07 107.985 143.07H94.1015C92.3283 143.07 90.8828 141.633 90.8828 139.851V133.498H90.8912Z" fill="#FFFBF3"/>
<path opacity="0.79" d="M111.204 133.498H90.8916V135.54H111.204V133.498Z" fill="#EEECE8"/>
<path d="M101.339 130.319C105.456 130.319 108.793 128.233 108.793 125.66C108.793 123.086 105.456 121 101.339 121C97.2221 121 93.8848 123.086 93.8848 125.66C93.8848 128.233 97.2221 130.319 101.339 130.319Z" fill="#7B5828"/>
<path d="M108.455 126.906C108.295 127.06 106.953 128.297 103.611 128.938C100.878 129.461 97.48 129.11 95.3441 126.309C94.0884 124.666 95.0671 123.127 95.0671 123.127C94.2608 123.872 93.793 124.764 93.793 125.731C93.793 128.304 97.1292 130.39 101.247 130.39C104.713 130.39 107.618 128.907 108.455 126.906Z" fill="#72502A"/>
<path d="M106.299 124.144C106.422 123.52 105.81 122.875 104.933 122.702C104.056 122.53 103.245 122.895 103.123 123.519C103 124.143 103.612 124.788 104.489 124.961C105.366 125.134 106.177 124.768 106.299 124.144Z" fill="#8E6531"/>
<path d="M158.657 170.036L140.634 149.515C133.115 140.96 120.347 139.894 112.105 147.128C103.864 154.37 103.28 167.174 110.791 175.73L128.815 196.25C136.057 204.491 148.605 205.302 156.84 198.06C165.081 190.819 165.892 178.27 158.65 170.036H158.657Z" fill="#FAE9B4"/>
<path d="M128.341 195.864L110.675 174.87C105.288 166.949 104.419 161.555 107.967 151.984L139.269 191.2C142.189 194.886 149.978 195.237 153.555 192.207C153.577 192.185 153.599 192.163 153.628 192.149C158.891 187.645 161.184 180.389 159.636 173.694C159.49 173.067 160.205 172.599 160.673 173.023C160.76 173.103 160.848 173.183 160.935 173.264C165.717 181.476 164.045 192.134 156.49 198.412C148.036 205.435 135.429 204.303 128.341 195.872V195.864Z" fill="#F0D698"/>
<path d="M61.2543 149.698L43.5446 170.502C36.4344 178.854 37.4418 191.388 45.793 198.498C54.1441 205.608 66.6782 204.601 73.7884 196.249L91.4981 175.445C98.8783 166.772 98.0972 153.983 89.7461 146.872C81.3949 139.762 68.6419 141.025 61.2543 149.698Z" fill="#FAE9B4"/>
<path d="M74.0216 195.609L91.578 174.84C96.9435 166.993 97.8267 161.613 94.3812 152.006L63.2614 190.82C60.3633 194.462 52.6692 194.725 49.1506 191.652C49.1287 191.63 49.1068 191.608 49.0776 191.594C43.9092 187.031 41.69 179.753 43.2522 173.081C43.3982 172.453 42.6974 171.979 42.2375 172.395C42.1499 172.475 42.0623 172.555 41.9747 172.636C37.2078 180.782 38.7992 191.455 46.216 197.813C54.5234 204.938 66.9698 203.945 74.0143 195.609H74.0216Z" fill="#F0D698"/>
<path d="M158.439 170.19L140.415 149.67C132.896 141.114 120.128 140.048 111.887 147.283C103.645 154.524 103.061 167.328 110.573 175.884L128.596 196.404C135.838 204.646 148.387 205.456 156.621 198.215C164.863 190.973 165.673 178.424 158.431 170.19H158.439Z" stroke="#C6AA7A" stroke-width="1.5" stroke-miterlimit="10"/>
<path d="M61.1371 149.932L43.4274 170.737C36.3173 179.088 37.3246 191.622 45.6758 198.732C54.027 205.842 66.561 204.835 73.6712 196.484L91.3809 175.679C98.7611 167.007 97.98 154.217 89.6289 147.107C81.2777 139.997 68.5247 141.26 61.1371 149.932Z" stroke="#C6AA7A" stroke-width="1.5" stroke-miterlimit="10"/>
<path d="M185.445 3.11816C186.853 13.3176 195.068 21.3902 205.455 22.8164C195.079 24.2419 186.854 32.3044 185.445 42.5137C184.037 32.3147 175.822 24.2422 165.436 22.8164C175.812 21.3911 184.037 13.3284 185.445 3.11816Z" fill="#FCDA48" stroke="#E1AB4E" stroke-width="1.5" stroke-linejoin="round"/>
<path d="M114.464 13.958C115.513 17.2088 118.08 19.7752 121.331 20.8252C118.081 21.875 115.514 24.4421 114.464 27.6924C113.414 24.4418 110.848 21.8747 107.597 20.8252C110.848 19.7755 113.414 17.2091 114.464 13.958Z" fill="#FCDA48" stroke="#E1AB4E" stroke-width="1.5" stroke-linejoin="round"/>
<path d="M211.988 56.3535C212.889 58.7683 214.808 60.6876 217.223 61.5889C214.808 62.4901 212.889 64.4088 211.988 66.8232C211.087 64.4085 209.168 62.49 206.753 61.5889C209.168 60.6877 211.087 58.7686 211.988 56.3535Z" fill="#FCDA48" stroke="#E1AB4E" stroke-width="1.5" stroke-linejoin="round"/>
<path d="M25.2334 115.229C26.1345 117.643 28.0531 119.563 30.4678 120.464C28.0533 121.365 26.1346 123.284 25.2334 125.698C24.3321 123.284 22.4128 121.365 19.998 120.464C22.4131 119.563 24.3322 117.644 25.2334 115.229Z" fill="#FCDA48" stroke="#E1AB4E" stroke-width="1.5" stroke-linejoin="round"/>
<path d="M22.3311 51.4902C24.434 59.535 30.7671 65.8635 38.8066 67.9658C30.762 70.0689 24.4334 76.4019 22.3311 84.4414C20.228 76.3967 13.8951 70.068 5.85547 67.9658C13.9004 65.8628 20.2288 59.5299 22.3311 51.4902Z" fill="#FCDA48" stroke="#E1AB4E" stroke-width="1.5" stroke-linejoin="round"/>
</svg>
